<?xml version="1.0" encoding="utf-8" ?><svg xmlns="http://www.w3.org/2000/svg" xmlns:xlink="http://www.w3.org/1999/xlink" width="750" height="730" viewBox="0 0 750 730"><path fill="#2A49FF" d="M0 133.723C1.35227 131.727 3.9438 117.574 4.99408 113.873C19.7941 61.7222 62.7122 20.5392 115.555 8.2109C138.238 2.91879 161.487 3.8438 184.772 3.81886L250.604 3.8897L367.188 3.96641C388.26 3.96895 409.775 3.74531 430.818 4.04008C441.478 3.64027 453.84 3.96886 464.646 3.97341L525.94 3.96834L572.086 3.99985C587.289 4.01386 603.218 3.665 618.247 5.89822C648.73 10.4279 677.825 24.0672 700.317 45.0739C732.53 75.1589 747.863 115.506 749.087 159.021C749.38 169.45 749.208 180.234 749.209 190.678L749.207 247.385L749.163 418.898L749.155 519.452C749.138 558.381 751.721 594.774 737.251 631.674C713.585 692.031 654.323 726.321 590.976 726.884C579.433 726.987 567.697 727.035 556.055 727.039L495.464 727.047L313.365 727.049L208.536 727.05C169.344 727.048 129.622 729.811 92.5555 714.602C48.9263 696.7 16.5131 659.958 4.77155 614.204C2.80987 606.56 1.94152 598.39 0 591.093L0 276.545L0 133.723Z"/><path fill="#8D1CFD" d="M0 133.723C1.35227 131.727 3.9438 117.574 4.99408 113.873C19.7941 61.7222 62.7122 20.5392 115.555 8.2109C138.238 2.91879 161.487 3.8438 184.772 3.81886L250.604 3.8897L367.188 3.96641C388.26 3.96895 409.775 3.74531 430.818 4.04008C426.493 4.89655 420.485 4.61277 415.976 4.604L394.813 4.57062L313.145 4.57011L278.918 4.57107C268.666 4.56578 259.024 4.27762 248.849 5.66397C244.788 6.21726 240.639 5.17914 236.438 6.55222C236.775 7.10867 238.39 7.53036 239.173 7.81993C237.638 9.57162 234.786 9.58813 233.461 11.5685C232.406 13.0968 234.163 16.5235 232.176 17.0718C231.318 17.3083 229.425 18.3857 228.785 18.8507C222.297 23.5459 216.296 28.5467 209.228 32.4908C205.981 34.3027 206.357 33.7806 203.729 36.5265C199.432 41.0162 192.268 44.9358 187.229 48.7955C184.738 50.7034 181.069 51.8361 178.481 53.7226C169.308 61.405 165.529 67.6023 153.389 71.196C149.128 72.4573 140.146 80.3387 135.74 82.8565C134.306 83.8463 131.808 84.3792 129.88 85.5422C126.91 87.3336 124.03 91.2813 121.696 92.9305C118.966 94.7405 115.087 95.689 112.663 97.8332C109.91 100.269 105.847 102.203 103.122 104.486C97.2569 109.4 89.0897 112.73 84.4031 118.405C83.3481 119.682 79.3489 121.518 77.9959 122.872C74.7934 125.936 70.9991 129.151 67.2863 131.609C62.1951 134.981 55.7311 136.543 50.2124 139.086C42.7572 142.522 34.8904 145.985 28.6147 151.344C27.9921 151.876 20.2326 153.827 19.069 154.594C16.6989 155.562 12.3744 159.802 9.81783 160.363C7.30756 160.913 5.70408 161.076 3.68565 162.642C2.75771 162.42 2.83502 162.083 2.14065 160.955L1.26469 159.504L0.979808 159.765L1.04468 160.397C1.54394 165.549 1.27117 173.335 1.25093 178.806L1.2195 208.81C1.21455 218.345 1.94058 291.463 0.546477 294.475C0.356901 291.17 0.479074 278.58 0 276.545L0 133.723Z"/><path fill="#FAFCFE" d="M240.688 257.476L292.608 258.715C295.09 271.196 298.867 285.406 301.896 297.861L319.129 368.821C321.731 379.669 325.293 392.919 327.241 403.62C338.955 355.579 352.465 306.446 364.983 258.488L415.377 259.224C416.902 267.6 420.729 280.985 422.922 289.721L440.655 360.694C443.577 372.362 448.349 389.277 450.341 400.708C456.004 379.608 461.165 358.092 466.451 336.878L485.882 259.422C500.94 259.207 515.829 258.628 530.879 258.207C527.763 268.352 524.822 280.699 522.057 291.103L477.95 455.982L442.473 455.653C436.149 455.581 428.76 455.328 422.519 455.578C415.229 425.678 406.238 395.47 398.634 365.581C395.433 352.996 391.35 339.766 388.606 327.144C386.175 339.661 380.843 356.936 377.565 369.67C370.165 398.419 361.852 427.229 354.507 456.012C335.156 455.922 315.742 456.206 296.39 456.434L260.225 327.719C253.728 304.529 246.775 280.741 240.688 257.476Z"/><path fill="#FAFCFE" d="M217.105 257.284C221.011 257.084 225.02 257.178 228.938 257.211C228.711 274.378 228.925 291.881 228.86 309.096C206.217 309.411 180.24 309.484 163.341 326.455C152.821 337.02 153.025 348.444 153.126 362.314C153.354 393.665 152.807 425.042 153.189 456.375L100.104 456.397L100.23 434.502L100.455 258.598C118.096 258.89 135.779 259.244 153.419 259.205C153.135 269.965 153.772 283.322 152.964 293.752C156.196 288.758 157.566 285.75 161.903 280.941C176.645 264.592 195.91 258.609 217.105 257.284Z"/><path fill="#FAFCFE" d="M541.594 258.299C547.57 257.978 555.156 258.34 561.261 258.482L591.875 259.087L665.096 356.799C661.918 361.496 656.961 367.565 653.396 372.225L631.037 401.417L605.083 435.459C599.835 442.394 594.435 449.859 588.997 456.568C584.922 457.92 546.49 456.476 539.211 456.633L614.449 356.284C606.293 346.291 596.238 331.868 588.43 321.308L541.594 258.299Z"/></svg>